<svg xmlns="http://www.w3.org/2000/svg" xmlns:xlink="http://www.w3.org/1999/xlink" width="61" height="66" viewBox="0 0 61 66">
  <metadata><?xpacket begin="﻿" id="W5M0MpCehiHzreSzNTczkc9d"?>
<x:xmpmeta xmlns:x="adobe:ns:meta/" x:xmptk="Adobe XMP Core 5.6-c138 79.159824, 2016/09/14-01:09:01        ">
   <rdf:RDF xmlns:rdf="http://www.w3.org/1999/02/22-rdf-syntax-ns#">
      <rdf:Description rdf:about=""/>
   </rdf:RDF>
</x:xmpmeta>





















<?xpacket end="w"?></metadata>
<defs>
    <style>
      .cls-1 {
        fill: #fff;
        fill-rule: evenodd;
        filter: url(#filter);
      }
    </style>
    <filter id="filter" x="400" y="3308" width="61" height="66" filterUnits="userSpaceOnUse">
      <feOffset result="offset" dx="-0.105" dy="5.999" in="SourceAlpha"/>
      <feGaussianBlur result="blur" stdDeviation="3.606"/>
      <feFlood result="flood" flood-color="#868686" flood-opacity="0.56"/>
      <feComposite result="composite" operator="in" in2="blur"/>
      <feBlend result="blend" in="SourceGraphic"/>
    </filter>
  </defs>
  <path class="cls-1" d="M412.3,3335.9l16.136,19.05a0.13,0.13,0,0,0,.225-0.04h0a0.1,0.1,0,0,0,0-.08l-6.91-19.05a0.136,0.136,0,0,0-.123-0.09H412.4A0.128,0.128,0,0,0,412.3,3335.9Zm8.182-2.8-4.116-8.03a0.136,0.136,0,0,0-.235,0l-4.117,8.03a0.125,0.125,0,0,0,.118.18h8.232A0.126,0.126,0,0,0,420.483,3333.1Zm7.912-8.33-0.829-1.08a0.137,0.137,0,0,0-.1-0.05h-8.852a0.131,0.131,0,0,0-.117.19l4.2,8.19a0.138,0.138,0,0,0,.222.02l5.477-7.12A0.118,0.118,0,0,0,428.4,3324.77Zm9.852,11.01-6.91,19.05a0.1,0.1,0,0,0,0,.08h0a0.129,0.129,0,0,0,.224.04L447.7,3335.9a0.128,0.128,0,0,0-.1-0.21h-9.227A0.137,0.137,0,0,0,438.247,3335.78Zm-12.932-2.5h9.37a0.125,0.125,0,0,0,.105-0.2l-4.685-6.09a0.131,0.131,0,0,0-.21,0l-4.685,6.09A0.125,0.125,0,0,0,425.315,3333.28Zm22.67-.18-4.117-8.03a0.136,0.136,0,0,0-.235,0l-4.116,8.03a0.125,0.125,0,0,0,.118.18h8.232A0.126,0.126,0,0,0,447.985,3333.1Zm-6.6-9.46h-8.851a0.139,0.139,0,0,0-.1.05l-0.829,1.08a0.118,0.118,0,0,0,0,.15l5.476,7.12a0.139,0.139,0,0,0,.223-0.02l4.2-8.19A0.131,0.131,0,0,0,441.39,3323.64Zm-16.965,12.22,5.451,15.23a0.13,0.13,0,0,0,.248,0l5.451-15.23a0.13,0.13,0,0,0-.124-0.17h-10.9A0.129,0.129,0,0,0,424.425,3335.86Zm5.47-15.84a1.214,1.214,0,0,0,1.237-1.2v-3.62a1.238,1.238,0,0,0-2.474,0v3.62A1.214,1.214,0,0,0,429.9,3320.02Zm-5.717.86a1.261,1.261,0,0,0,1.749,0,1.19,1.19,0,0,0,0-1.71l-2.474-2.41a1.26,1.26,0,0,0-1.748,0,1.188,1.188,0,0,0,0,1.71Zm11.644,0,2.473-2.41a1.19,1.19,0,0,0,0-1.71,1.261,1.261,0,0,0-1.749,0l-2.473,2.41a1.19,1.19,0,0,0,0,1.71A1.261,1.261,0,0,0,435.822,3320.88Z" transform="translate(-400 -3308)"/>
</svg>
